<svg xmlns="http://www.w3.org/2000/svg" width="800" height="400" viewBox="0 125 750 300" xmlns:xlink="http://www.w3.org/1999/xlink" role="img" artist="Katerina Limpitsouni" source="https://undraw.co/">
<g transform="translate(-841 -375) scale(1.2)">
<g transform="translate(717.469 409.455)">
    <path d="M527.365,444.553h-162V183.737h162Zm-158.758-3.24H524.125V186.977H368.607Z" transform="translate(-365.367 -183.737)" fill="oklch(0.28 0.02 95.86)"/><rect width="26.239" height="3.24" transform="translate(14.58 16.198)" fill="oklch(0.7 0.02 95.86)"/><rect width="26.239" height="3.24" transform="translate(14.58 24.297)" fill="oklch(0.7 0.02 95.86)"/><rect width="26.239" height="3.24" transform="translate(14.58 32.399)" fill="oklch(0.7 0.02 95.86)"/><rect width="112.097" height="3.24" transform="translate(27.54 171.714)" fill="currentColor"/><rect width="112.097" height="3.24" transform="translate(27.54 189.535)" fill="currentColor"/><rect width="112.097" height="3.24" transform="translate(27.54 207.355)" fill="currentColor"/><path d="M454.707,215.416a11.34,11.34,0,1,1,11.34-11.34,11.34,11.34,0,0,1-11.34,11.34Zm0-19.44a8.1,8.1,0,1,0,8.1,8.1A8.1,8.1,0,0,0,454.707,195.976Z" transform="translate(-317.01 -178.158)" fill="currentColor"/><path d="M496.385,295.255H381.367V220.737H496.385Zm-111.778-3.24H493.145V223.977H384.607Z" transform="translate(-355.447 -160.799)" fill="oklch(0.7 0.02 95.86)"/><rect width="3.24" height="132.571" transform="translate(26.67 62.924) rotate(-57.475)" fill="oklch(0.7 0.02 95.86)"/><rect width="132.571" height="3.24" transform="translate(26.666 131.466) rotate(-32.525)" fill="oklch(0.7 0.02 95.86)"/>
</g>
<g transform="translate(933.265 409.455)">
    <path d="M527.365,444.553h-162V183.737h162Zm-158.758-3.24H524.125V186.977H368.607Z" transform="translate(-365.367 -183.737)" fill="oklch(0.28 0.02 95.86)"/><rect width="26.239" height="3.24" transform="translate(14.58 16.198)" fill="oklch(0.7 0.02 95.86)"/><rect width="26.239" height="3.24" transform="translate(14.58 24.297)" fill="oklch(0.7 0.02 95.86)"/><rect width="26.239" height="3.24" transform="translate(14.58 32.399)" fill="oklch(0.7 0.02 95.86)"/><rect width="112.097" height="3.24" transform="translate(27.54 171.714)" fill="currentColor"/><rect width="112.097" height="3.24" transform="translate(27.54 189.535)" fill="currentColor"/><rect width="112.097" height="3.24" transform="translate(27.54 207.355)" fill="currentColor"/><path d="M454.707,215.416a11.34,11.34,0,1,1,11.34-11.34,11.34,11.34,0,0,1-11.34,11.34Zm0-19.44a8.1,8.1,0,1,0,8.1,8.1A8.1,8.1,0,0,0,454.707,195.976Z" transform="translate(-317.01 -178.158)" fill="oklch(0.7 0.02 95.86)"/><path d="M496.385,295.255H381.367V220.737H496.385Zm-111.778-3.24H493.145V223.977H384.607Z" transform="translate(-355.447 -160.799)" fill="currentColor"/><rect width="3.24" height="132.571" transform="translate(26.67 62.924) rotate(-57.475)" fill="currentColor"/><rect width="132.571" height="3.24" transform="translate(26.666 131.466) rotate(-32.525)" fill="currentColor"/>
</g>
<g transform="translate(1149.06 409.455)">
    <path d="M527.365,444.553h-162V183.737h162Zm-158.758-3.24H524.125V186.977H368.607Z" transform="translate(-365.367 -183.737)" fill="oklch(0.28 0.02 95.86)"/><rect width="26.239" height="3.24" transform="translate(14.58 16.198)" fill="currentColor"/><rect width="26.239" height="3.24" transform="translate(14.58 24.297)" fill="currentColor"/><rect width="26.239" height="3.24" transform="translate(14.58 32.399)" fill="currentColor"/><rect width="112.097" height="3.24" transform="translate(27.54 171.714)" fill="oklch(0.7 0.02 95.86)"/><rect width="112.097" height="3.24" transform="translate(27.54 189.535)" fill="oklch(0.7 0.02 95.86)"/><rect width="112.097" height="3.24" transform="translate(27.54 207.355)" fill="oklch(0.7 0.02 95.86)"/><path d="M454.707,215.416a11.34,11.34,0,1,1,11.34-11.34,11.34,11.34,0,0,1-11.34,11.34Zm0-19.44a8.1,8.1,0,1,0,8.1,8.1A8.1,8.1,0,0,0,454.707,195.976Z" transform="translate(-317.01 -178.158)" fill="oklch(0.7 0.02 95.86)"/><path d="M496.385,295.255H381.367V220.737H496.385Zm-111.778-3.24H493.145V223.977H384.607Z" transform="translate(-355.447 -160.799)" fill="currentColor"/><rect width="3.24" height="132.571" transform="translate(26.67 62.924) rotate(-57.475)" fill="currentColor"/><rect width="132.571" height="3.24" transform="translate(26.666 131.466) rotate(-32.525)" fill="currentColor"/>
</g>
</g>
</svg>