<svg xmlns="http://www.w3.org/2000/svg" width="800" height="400" viewBox="150 175 600 250" xmlns:xlink="http://www.w3.org/1999/xlink" role="img" artist="Katerina Limpitsouni" source="https://undraw.co/">
<g transform="translate(-760 -377.653) scale(1.2)">
<g transform="translate(748.496 426.164)">
<rect width="21.482" height="11.242" rx="1.561" transform="translate(74.314 47.345)" fill="oklch(0.28 0.02 95.86)"/><rect width="21.482" height="11.242" rx="1.561" transform="translate(205.102 47.345)" fill="currentColor"/><rect width="21.482" height="11.242" rx="1.561" transform="translate(242.151 47.345)" fill="oklch(0.7 0.02 95.86)"/><rect width="74.883" height="11.242" rx="1.561" transform="translate(106.171 46.404)" fill="currentColor"/><rect width="74.883" height="11.242" rx="1.561" transform="translate(288.947 46.404)" fill="oklch(0.7 0.02 95.86)"/><rect width="21.482" height="11.242" rx="1.561" transform="translate(105.544 72.713)" fill="oklch(0.28 0.02 95.86)"/><rect width="21.482" height="11.242" rx="1.561" transform="translate(239.972 72.713)" fill="oklch(0.28 0.02 95.86)"/><rect width="21.482" height="11.242" rx="1.561" transform="translate(277.034 72.713)" fill="currentColor"/><rect width="74.883" height="11.242" rx="1.561" transform="translate(146.334 71.779)" fill="oklch(0.7 0.02 95.86)"/><rect width="74.883" height="11.242" rx="1.561" transform="translate(329.016 71.779)" fill="oklch(0.7 0.02 95.86)"/><rect width="21.482" height="11.242" rx="1.561" transform="translate(144.067 98.092)" fill="currentColor"/><rect width="21.482" height="11.242" rx="1.561" transform="translate(274.842 98.092)" fill="currentColor"/><rect width="21.482" height="11.242" rx="1.561" transform="translate(311.898 98.092)" fill="currentColor"/><rect width="74.883" height="11.242" rx="1.561" transform="translate(181.989 97.151)" fill="oklch(0.7 0.02 95.86)"/><rect width="74.883" height="11.242" rx="1.561" transform="translate(360.252 97.151)" fill="oklch(0.7 0.02 95.86)"/><rect width="21.482" height="11.242" rx="1.561" transform="translate(178.937 123.462)" fill="oklch(0.28 0.02 95.86)"/><rect width="21.482" height="11.242" rx="1.561" transform="translate(309.717 123.462)" fill="oklch(0.28 0.02 95.86)"/><rect width="21.482" height="11.242" rx="1.561" transform="translate(346.774 123.462)" fill="currentColor"/><rect width="74.883" height="11.242" rx="1.561" transform="translate(217.639 122.523)" fill="currentColor"/><rect width="21.482" height="11.242" rx="1.561" transform="translate(205.102 224.358)" fill="currentColor"/><rect width="21.482" height="11.242" rx="1.561" transform="translate(242.151 224.358)" fill="oklch(0.28 0.02 95.86)"/><rect width="74.883" height="11.242" rx="1.561" transform="translate(288.947 225.296)" fill="oklch(0.7 0.02 95.86)"/><rect width="21.482" height="11.242" rx="1.561" transform="translate(74.314 224.358)" fill="currentColor"/><rect width="74.883" height="11.242" rx="1.561" transform="translate(106.171 225.296)" fill="currentColor"/><rect width="21.482" height="11.242" rx="1.561" transform="translate(105.544 198.985)" fill="oklch(0.7 0.02 95.86)"/><rect width="21.482" height="11.242" rx="1.561" transform="translate(239.972 198.985)" fill="currentColor"/><rect width="21.482" height="11.242" rx="1.561" transform="translate(277.034 198.985)" fill="currentColor"/><rect width="74.883" height="11.242" rx="1.561" transform="translate(146.334 199.922)" fill="currentColor"/><rect width="21.482" height="11.242" rx="1.561" transform="translate(144.067 173.611)" fill="oklch(0.28 0.02 95.86)"/><rect width="21.482" height="11.242" rx="1.561" transform="translate(274.842 173.611)" fill="currentColor"/><rect width="21.482" height="11.242" rx="1.561" transform="translate(311.898 173.611)" fill="oklch(0.28 0.02 95.86)"/><rect width="74.883" height="11.242" rx="1.561" transform="translate(181.989 174.548)" fill="oklch(0.7 0.02 95.86)"/><rect width="21.482" height="11.242" rx="1.561" transform="translate(178.937 148.237)" fill="oklch(0.7 0.02 95.86)"/><rect width="21.482" height="11.242" rx="1.561" transform="translate(309.717 148.237)" fill="oklch(0.7 0.02 95.86)"/><rect width="21.482" height="11.242" rx="1.561" transform="translate(346.774 148.237)" fill="oklch(0.7 0.02 95.86)"/><rect width="74.883" height="11.242" rx="1.561" transform="translate(217.639 149.175)" fill="oklch(0.28 0.02 95.86)"/>
</g></g></svg>